<svg width="128" height="128" viewBox="0 0 128 128" fill="none" xmlns="http://www.w3.org/2000/svg">
  <defs>
    <linearGradient id="grad" x1="16" y1="20" x2="116" y2="108" gradientUnits="userSpaceOnUse">
      <stop stop-color="#6366F1" />
      <stop offset="1" stop-color="#8B5CF6" />
    </linearGradient>
    <linearGradient id="glow" x1="24" y1="10" x2="84" y2="120" gradientUnits="userSpaceOnUse">
      <stop stop-color="#A5B4FC" stop-opacity="0.9" />
      <stop offset="1" stop-color="#C4B5FD" stop-opacity="0.25" />
    </linearGradient>
  </defs>
  <rect x="8" y="8" width="112" height="112" rx="28" fill="#0F172A" />
  <rect x="8" y="8" width="112" height="112" rx="28" fill="url(#glow)" opacity="0.35" />
  <path d="M34 44C34 36.268 40.268 30 48 30H64C71.732 30 78 36.268 78 44V48" stroke="url(#grad)" stroke-width="10" stroke-linecap="round" />
  <path d="M50 62H80C87.732 62 94 68.268 94 76V84C94 91.732 87.732 98 80 98H64C56.268 98 50 91.732 50 84V80" stroke="url(#grad)" stroke-width="10" stroke-linecap="round" />
  <circle cx="48" cy="48" r="8" fill="#10B981" />
  <circle cx="80" cy="80" r="8" fill="#22D3EE" />
</svg>

