<svg xmlns="http://www.w3.org/2000/svg" width="120" height="120" viewBox="0 0 120 120" fill="none">
  <rect x="15" y="25" width="90" height="80" rx="8" fill="#818cf8" opacity="0.1"/>
  <rect x="15" y="25" width="90" height="80" rx="8" stroke="#818cf8" stroke-width="2" fill="none"/>
  <line x1="15" y1="45" x2="105" y2="45" stroke="#818cf8" stroke-width="2"/>
  <line x1="35" y1="20" x2="35" y2="30" stroke="#818cf8" stroke-width="3" stroke-linecap="round"/>
  <line x1="85" y1="20" x2="85" y2="30" stroke="#818cf8" stroke-width="3" stroke-linecap="round"/>
  <circle cx="30" cy="60" r="4" fill="#818cf8" opacity="0.3"/>
  <circle cx="45" cy="60" r="4" fill="#818cf8" opacity="0.3"/>
  <circle cx="60" cy="60" r="4" fill="#818cf8" opacity="0.3"/>
  <circle cx="75" cy="60" r="4" fill="#818cf8" opacity="0.3"/>
  <circle cx="90" cy="60" r="4" fill="#818cf8" opacity="0.3"/>
  <circle cx="30" cy="75" r="4" fill="#818cf8" opacity="0.3"/>
  <circle cx="45" cy="75" r="4" fill="#818cf8" opacity="0.3"/>
  <circle cx="60" cy="75" r="4" fill="#22c55e"/>
  <circle cx="75" cy="75" r="4" fill="#818cf8" opacity="0.3"/>
  <circle cx="90" cy="75" r="4" fill="#818cf8" opacity="0.3"/>
  <circle cx="30" cy="90" r="4" fill="#818cf8" opacity="0.3"/>
  <circle cx="45" cy="90" r="4" fill="#818cf8" opacity="0.3"/>
  <circle cx="60" cy="90" r="4" fill="#818cf8" opacity="0.3"/>
</svg>

